<svg xmlns="http://www.w3.org/2000/svg" xmlns:xlink="http://www.w3.org/1999/xlink" xmlns:lucid="lucid" width="880.44" height="461"><g transform="translate(-199.5 -119.5)" lucid:page-tab-id="0_0"><path d="M0 0h1500v1000H0z" fill="#fff"/><path d="M520.56 146a6 6 0 0 1 6-6H874a6 6 0 0 1 6 6v408a6 6 0 0 1-6 6H526.56a6 6 0 0 1-6-6z" fill-opacity="0"/><path d="M521.46 142.88l.25-.4.62-.72.7-.6.4-.26m1.74-.72l.46-.1.94-.08h1.5m2.02 0h3.03m2.02 0h3.02m2 0h3.04m2 0h3.03m2.03 0h3.02m2 0h3.03m2.02 0h3.02m2 0h3.03m2.02 0h3.02m2 0h3.02m2.02 0h3.02m2 0h3.03m2 0h3.03m2 0h3.04m2 0h3.03m2 0h3.04m2 0h3.03m2.02 0h3m2.02 0h3.02m2.02 0h3.02m2 0h3.03m2.03 0h3.02m2 0h3.03m2.02 0h3.02m2 0h3.03m2.02 0H659m2 0h3.02m2.02 0h3.02m2.02 0h3.02m2 0h3.03m2 0h3.04m2 0h3.03m2.02 0h3.02m2 0h3.03m2.02 0h3m2.02 0h3.02m2.02 0h3.02m2 0h3.03m2.03 0h3.02m2 0h3.03m2.02 0h3.02m2 0h3.04m2 0h3.03m2 0h3.03m2 0h3.03m2.02 0h3.02m2 0h3.03m2.02 0h3.02m2 0h3.03m2.02 0h3.02m2 0h3.03m2.02 0h3m2.02 0h3.03m2 0H800m2 0h3.03m2.03 0h3.02m2.02 0h3.02m2 0h3.02m2.02 0h3.02m2 0h3.03m2 0h3.03m2 0h3.03m2.02 0h3.02m2 0h3.03m2.02 0h3.02m2 0h3.03m2.02 0h3.02m2 0h3.03m2.02 0h1.5l.94.07.46.1m1.73.73l.4.25.7.6.62.72.25.4m.72 1.73l.1.46.08.94v1.5m0 1.98v3m0 1.98v2.98m0 2v2.98m0 2v2.98m0 1.98v3m0 1.98v3m0 1.98v2.98m0 2v2.98m0 2v2.97m0 2v2.98m0 2v2.97m0 2v2.98m0 2v2.98m0 2v2.97m0 2v2.98m0 2v2.97m0 2v2.98m0 2v2.97m0 2v2.98m0 2V247m0 2v2.98m0 2v2.98m0 2v2.97m0 2v2.98m0 2v2.98m0 2v2.98m0 2v2.97m0 2v2.98m0 2v3m0 1.98v2.98m0 2v2.98m0 2v2.97m0 2v3m0 1.98v2.98m0 2v2.98m0 2v2.98m0 2v2.97m0 1.98v3m0 1.98v2.98m0 2v2.98m0 2v2.97m0 1.98v3m0 1.98v2.98m0 2v2.98m0 2v2.97m0 2v2.97m0 2v2.98m0 2v2.97m0 2v2.98m0 2v2.97m0 2v2.98m0 2v2.97m0 2v2.98m0 2v2.98m0 2v2.97m0 2v2.98m0 2v2.97m0 2v2.98m0 2v2.97m0 2v2.98m0 2V451m0 2v2.98m0 2v2.98m0 2v2.97m0 2v2.98m0 2v2.98m0 2v2.98m0 2v2.97m0 2v2.98m0 2v3m0 1.98v2.98m0 2v2.98m0 2v2.97m0 2v3m0 1.98v2.98m0 2v2.98m0 2v2.98m0 2v2.97m0 1.98v3m0 1.98v2.98m0 2v2.98m0 2V554l-.07.94-.1.46m-.73 1.73l-.25.4-.6.7-.72.62-.4.25m-1.73.72l-.46.1-.94.08h-1.5m-2.02 0h-3.03m-2 0h-3.03m-2 0h-3.04m-2 0h-3.03m-2.02 0h-3.02m-2 0h-3.02m-2.02 0h-3.02m-2 0h-3.03m-2 0h-3.03m-2 0h-3.03m-2.02 0h-3.02m-2 0h-3.03m-2.02 0h-3.02m-2 0h-3.04m-2.02 0h-3.02m-2 0h-3.04m-2 0h-3.03m-2.03 0h-3.02m-2 0h-3.03m-2.02 0h-3.02m-2 0h-3.03m-2.02 0h-3.02m-2 0h-3.02m-2.02 0h-3.02m-2 0h-3.03m-2 0h-3.03m-2 0h-3.04m-2 0h-3.03m-2 0h-3.04m-2 0h-3.03m-2.02 0h-3m-2.02 0h-3.02m-2.02 0h-3.02m-2 0h-3.03m-2.03 0h-3.02m-2 0h-3.03m-2.02 0h-3.02m-2 0h-3.03m-2.02 0h-3.02m-2 0h-3.02m-2.02 0h-3.02m-2 0H661m-2 0h-3.03m-2.02 0h-3.02m-2 0h-3.03m-2.02 0h-3.02m-2 0h-3.03m-2.02 0h-3m-2.02 0h-3.02m-2.02 0h-3.02m-2 0h-3.03m-2.03 0h-3.02m-2 0h-3.03m-2.02 0h-3.02m-2 0h-3.04m-2 0h-3.03m-2 0h-3.03m-2 0h-3.03m-2.02 0h-3.02m-2 0h-3.03m-2.02 0h-3.02m-2 0h-3.03m-2.02 0h-3.02m-2 0h-3.03m-2.02 0h-3m-2.02 0h-3.02m-2.02 0h-3.02m-2 0h-3.04m-2 0h-1.52l-.94-.07-.46-.1m-1.73-.73l-.4-.25-.7-.6-.62-.72-.24-.4m-.72-1.73l-.1-.46-.08-.94v-1.5m0-1.98v-3m0-1.98v-2.98m0-2v-2.98m0-2v-2.98m0-2v-2.97m0-2v-2.98m0-2v-2.97m0-2v-2.98m0-2v-2.97m0-2v-2.98m0-2v-2.97m0-2v-2.98m0-2v-2.98m0-2v-2.97m0-2v-2.98m0-2v-2.97m0-2v-2.98m0-2v-2.97m0-2v-2.98m0-2V453m0-2v-2.98m0-2v-2.98m0-2v-2.97m0-2v-2.98m0-2v-2.98m0-2v-2.98m0-2v-2.97m0-2v-2.98m0-2v-3m0-1.98v-2.98m0-2v-2.98m0-2v-2.97m0-2v-3m0-1.98v-2.98m0-2v-2.98m0-2v-2.98m0-2v-2.97m0-1.98v-3m0-1.98v-2.98m0-2v-2.98m0-2v-2.97m0-1.98v-3m0-1.98v-2.98m0-2v-2.98m0-2v-2.97m0-2v-2.97m0-2v-2.98m0-2v-2.97m0-2v-2.98m0-2v-2.97m0-2v-2.98m0-2v-2.97m0-2v-2.98m0-2v-2.98m0-2v-2.97m0-2v-2.98m0-2v-2.97m0-2v-2.98m0-2v-2.97m0-2v-2.98m0-2V249m0-2v-2.98m0-2v-2.98m0-2v-2.97m0-2v-2.98m0-2v-2.98m0-2v-2.98m0-2v-2.97m0-2v-2.98m0-2v-2.98m0-2v-2.98m0-2v-2.98m0-2v-2.97m0-2v-3m0-1.98v-2.98m0-2v-2.98m0-2v-2.98m0-1.98v-3m0-1.98v-3m0-1.98v-2.98m0-2v-2.98m0-2V146l.07-.94.1-.46" stroke="#3a414a" fill="none"/><path d="M320 426a6 6 0 0 1 6-6h48a6 6 0 0 1 6 6v48a6 6 0 0 1-6 6h-48a6 6 0 0 1-6-6z" stroke="#3a414a"/><path d="M480 450c0 16.57-13.43 30-30 30s-30-13.43-30-30 13.43-30 30-30 30 13.43 30 30z" stroke="#3a414a" fill="#fff"/><path d="M381 450h22.12" stroke="#3a414a" fill="none"/><path d="M381 450.5h-.5v-1h.5z" stroke="#3a414a" stroke-width=".05" fill="#3a414a"/><path d="M417.88 450l-14.26 4.63v-9.26z" stroke="#3a414a" fill="#3a414a"/><path d="M679 426a6 6 0 0 1 6-6h48a6 6 0 0 1 6 6v48a6 6 0 0 1-6 6h-48a6 6 0 0 1-6-6z" stroke="#3a414a"/><path d="M739 350c0 16.57-13.43 30-30 30s-30-13.43-30-30 13.43-30 30-30 30 13.43 30 30z" stroke="#3a414a" fill="#fff"/><path d="M679 226a6 6 0 0 1 6-6h48a6 6 0 0 1 6 6v48a6 6 0 0 1-6 6h-48a6 6 0 0 1-6-6z" stroke="#3a414a"/><path d="M709 281v22.12" stroke="#3a414a" fill="none"/><path d="M709.5 281h-1v-.5h1z" stroke="#3a414a" stroke-width=".05" fill="#3a414a"/><path d="M709 317.88l-4.64-14.26h9.27z" stroke="#3a414a" fill="#3a414a"/><path d="M709 381v22.12" stroke="#3a414a" fill="none"/><path d="M709 380.5l.5-.02v.53h-1v-.54z" stroke="#3a414a" stroke-width=".05" fill="#3a414a"/><path d="M709 417.88l-4.64-14.26h9.27z" stroke="#3a414a" fill="#3a414a"/><path d="M481 450h181.12" stroke="#3a414a" fill="none"/><path d="M481 450.5h-.54l.04-.5-.02-.5h.53z" stroke="#3a414a" stroke-width=".05" fill="#3a414a"/><path d="M676.88 450l-14.26 4.63v-9.26z" stroke="#3a414a" fill="#3a414a"/><path d="M220 486a6 6 0 0 1 6-6h248a6 6 0 0 1 6 6v54a6 6 0 0 1-6 6H226a6 6 0 0 1-6-6z" stroke="#000" stroke-opacity="0" fill="#fff" fill-opacity="0"/><use xlink:href="#a" transform="matrix(1,0,0,1,225,485) translate(16.30555555555557 22.944444444444443)"/><use xlink:href="#b" transform="matrix(1,0,0,1,225,485) translate(56.793209876543216 22.944444444444443)"/><use xlink:href="#c" transform="matrix(1,0,0,1,225,485) translate(108.60185185185185 22.944444444444443)"/><use xlink:href="#d" transform="matrix(1,0,0,1,225,485) translate(131.02777777777777 22.944444444444443)"/><use xlink:href="#e" transform="matrix(1,0,0,1,225,485) translate(205.21913580246914 22.944444444444443)"/><use xlink:href="#f" transform="matrix(1,0,0,1,225,485) translate(68.02777777777779 41.61111111111111)"/><use xlink:href="#g" transform="matrix(1,0,0,1,225,485) translate(137.98456790123458 41.61111111111111)"/><path d="M638 166a6 6 0 0 1 6-6h130a6 6 0 0 1 6 6v48a6 6 0 0 1-6 6H644a6 6 0 0 1-6-6z" stroke="#000" stroke-opacity="0" fill="#fff" fill-opacity="0"/><use xlink:href="#h" transform="matrix(1,0,0,1,642.9987525521337,165) translate(32.83950617283951 18.694444444444443)"/><use xlink:href="#i" transform="matrix(1,0,0,1,642.9987525521337,165) translate(76.91358024691358 18.694444444444443)"/><use xlink:href="#f" transform="matrix(1,0,0,1,642.9987525521337,165) translate(9.527777777777786 37.36111111111111)"/><use xlink:href="#g" transform="matrix(1,0,0,1,642.9987525521337,165) translate(79.48456790123457 37.36111111111111)"/><path d="M619 486a6 6 0 0 1 6-6h168a6 6 0 0 1 6 6v48a6 6 0 0 1-6 6H625a6 6 0 0 1-6-6z" stroke="#000" stroke-opacity="0" fill="#fff" fill-opacity="0"/><use xlink:href="#j" transform="matrix(1,0,0,1,623.9993762760669,485) translate(10.07407407407409 28.069444444444443)"/><use xlink:href="#k" transform="matrix(1,0,0,1,623.9993762760669,485) translate(79.68518518518519 28.069444444444443)"/><use xlink:href="#g" transform="matrix(1,0,0,1,623.9993762760669,485) translate(115.93827160493827 28.069444444444443)"/><path d="M559 381a6 6 0 0 1 6-6h108a6 6 0 0 1 6 6v38a6 6 0 0 1-6 6H565a6 6 0 0 1-6-6z" stroke="#000" stroke-opacity="0" fill="#fff" fill-opacity="0"/><g><use xlink:href="#l" transform="matrix(1,0,0,1,563.9993762760669,380) translate(15.246913580246968 16.388888888888886)"/><use xlink:href="#m" transform="matrix(1,0,0,1,563.9993762760669,380) translate(58.17901234567904 16.388888888888886)"/><use xlink:href="#n" transform="matrix(1,0,0,1,563.9993762760669,380) translate(24.320987654321044 29.722222222222207)"/><use xlink:href="#o" transform="matrix(1,0,0,1,563.9993762760669,380) translate(39.75308641975313 29.722222222222207)"/><use xlink:href="#p" transform="matrix(1,0,0,1,563.9993762760669,380) translate(81.04938271604941 29.722222222222207)"/><use xlink:href="#q" transform="matrix(1,0,0,1,563.9993762760669,380) translate(93.39506172839508 29.722222222222207)"/></g><path d="M1020 450c0 16.57-13.43 30-30 30s-30-13.43-30-30 13.43-30 30-30 30 13.43 30 30z" stroke="#3a414a" fill="#fff"/><path d="M740 450h203.12" stroke="#3a414a" fill="none"/><path d="M740 450.5h-.5v-1h.5z" stroke="#3a414a" stroke-width=".05" fill="#3a414a"/><path d="M957.88 450l-14.26 4.63v-9.26z" stroke="#3a414a" fill="#3a414a"/><path d="M540 166a6 6 0 0 1 6-6h68a6 6 0 0 1 6 6v8a6 6 0 0 1-6 6h-68a6 6 0 0 1-6-6z" stroke="#000" stroke-opacity="0" fill="#fff" fill-opacity="0"/><g><use xlink:href="#r" transform="matrix(1,0,0,1,545,165) translate(0 14.222222222222221)"/><use xlink:href="#s" transform="matrix(1,0,0,1,545,165) translate(8.839506172839505 14.222222222222221)"/><use xlink:href="#t" transform="matrix(1,0,0,1,545,165) translate(24.148148148148145 14.222222222222221)"/></g><path d="M920.56 486a6 6 0 0 1 6-6h126.88a6 6 0 0 1 6 6v28a6 6 0 0 1-6 6H926.56a6 6 0 0 1-6-6z" stroke="#000" stroke-opacity="0" fill="#fff" fill-opacity="0"/><g><use xlink:href="#u" transform="matrix(1,0,0,1,925.5596849853587,485) translate(11.049382716049394 18.069444444444443)"/><use xlink:href="#v" transform="matrix(1,0,0,1,925.5596849853587,485) translate(48.94444444444445 18.069444444444443)"/></g><defs><path d="M33 0v-248h34V0H33" id="w"/><path d="M117-194c89-4 53 116 60 194h-32v-121c0-31-8-49-39-48C34-167 62-67 57 0H25l-1-190h30c1 10-1 24 2 32 11-22 29-35 61-36" id="x"/><path d="M24-231v-30h32v30H24zM24 0v-190h32V0H24" id="y"/><path d="M59-47c-2 24 18 29 38 22v24C64 9 27 4 27-40v-127H5v-23h24l9-43h21v43h35v23H59v120" id="z"/><path d="M141-36C126-15 110 5 73 4 37 3 15-17 15-53c-1-64 63-63 125-63 3-35-9-54-41-54-24 1-41 7-42 31l-33-3c5-37 33-52 76-52 45 0 72 20 72 64v82c-1 20 7 32 28 27v20c-31 9-61-2-59-35zM48-53c0 20 12 33 32 33 41-3 63-29 60-74-43 2-92-5-92 41" id="A"/><path d="M24 0v-261h32V0H24" id="B"/><g id="a"><use transform="matrix(0.04320987654320987,0,0,0.04320987654320987,0,0)" xlink:href="#w"/><use transform="matrix(0.04320987654320987,0,0,0.04320987654320987,4.320987654320986,0)" xlink:href="#x"/><use transform="matrix(0.04320987654320987,0,0,0.04320987654320987,12.962962962962958,0)" xlink:href="#y"/><use transform="matrix(0.04320987654320987,0,0,0.04320987654320987,16.376543209876537,0)" xlink:href="#z"/><use transform="matrix(0.04320987654320987,0,0,0.04320987654320987,20.697530864197525,0)" xlink:href="#y"/><use transform="matrix(0.04320987654320987,0,0,0.04320987654320987,24.111111111111107,0)" xlink:href="#A"/><use transform="matrix(0.04320987654320987,0,0,0.04320987654320987,32.753086419753075,0)" xlink:href="#B"/></g><path d="M114-163C36-179 61-72 57 0H25l-1-190h30c1 12-1 29 2 39 6-27 23-49 58-41v29" id="C"/><path d="M100-194c63 0 86 42 84 106H49c0 40 14 67 53 68 26 1 43-12 49-29l28 8c-11 28-37 45-77 45C44 4 14-33 15-96c1-61 26-98 85-98zm52 81c6-60-76-77-97-28-3 7-6 17-6 28h103" id="D"/><path d="M135-143c-3-34-86-38-87 0 15 53 115 12 119 90S17 21 10-45l28-5c4 36 97 45 98 0-10-56-113-15-118-90-4-57 82-63 122-42 12 7 21 19 24 35" id="E"/><path d="M100-194c62-1 85 37 85 99 1 63-27 99-86 99S16-35 15-95c0-66 28-99 85-99zM99-20c44 1 53-31 53-75 0-43-8-75-51-75s-53 32-53 75 10 74 51 75" id="F"/><g id="b"><use transform="matrix(0.04320987654320987,0,0,0.04320987654320987,0,0)" xlink:href="#C"/><use transform="matrix(0.04320987654320987,0,0,0.04320987654320987,5.141975308641975,0)" xlink:href="#D"/><use transform="matrix(0.04320987654320987,0,0,0.04320987654320987,13.783950617283947,0)" xlink:href="#A"/><use transform="matrix(0.04320987654320987,0,0,0.04320987654320987,22.42592592592592,0)" xlink:href="#E"/><use transform="matrix(0.04320987654320987,0,0,0.04320987654320987,30.2037037037037,0)" xlink:href="#F"/><use transform="matrix(0.04320987654320987,0,0,0.04320987654320987,38.84567901234567,0)" xlink:href="#x"/></g><path d="M101-234c-31-9-42 10-38 44h38v23H63V0H32v-167H5v-23h27c-7-52 17-82 69-68v24" id="G"/><g id="c"><use transform="matrix(0.04320987654320987,0,0,0.04320987654320987,0,0)" xlink:href="#G"/><use transform="matrix(0.04320987654320987,0,0,0.04320987654320987,4.320987654320986,0)" xlink:href="#F"/><use transform="matrix(0.04320987654320987,0,0,0.04320987654320987,12.962962962962958,0)" xlink:href="#C"/></g><path d="M85-194c31 0 48 13 60 33l-1-100h32l1 261h-30c-2-10 0-23-3-31C134-8 116 4 85 4 32 4 16-35 15-94c0-66 23-100 70-100zm9 24c-40 0-46 34-46 75 0 40 6 74 45 74 42 0 51-32 51-76 0-42-9-74-50-73" id="H"/><path d="M210-169c-67 3-38 105-44 169h-31v-121c0-29-5-50-35-48C34-165 62-65 56 0H25l-1-190h30c1 10-1 24 2 32 10-44 99-50 107 0 11-21 27-35 58-36 85-2 47 119 55 194h-31v-121c0-29-5-49-35-48" id="I"/><g id="d"><use transform="matrix(0.04320987654320987,0,0,0.04320987654320987,0,0)" xlink:href="#A"/><use transform="matrix(0.04320987654320987,0,0,0.04320987654320987,8.641975308641973,0)" xlink:href="#H"/><use transform="matrix(0.04320987654320987,0,0,0.04320987654320987,17.283950617283946,0)" xlink:href="#I"/><use transform="matrix(0.04320987654320987,0,0,0.04320987654320987,30.2037037037037,0)" xlink:href="#y"/><use transform="matrix(0.04320987654320987,0,0,0.04320987654320987,33.61728395061728,0)" xlink:href="#E"/><use transform="matrix(0.04320987654320987,0,0,0.04320987654320987,41.395061728395056,0)" xlink:href="#E"/><use transform="matrix(0.04320987654320987,0,0,0.04320987654320987,49.17283950617284,0)" xlink:href="#y"/><use transform="matrix(0.04320987654320987,0,0,0.04320987654320987,52.58641975308642,0)" xlink:href="#F"/><use transform="matrix(0.04320987654320987,0,0,0.04320987654320987,61.22839506172839,0)" xlink:href="#x"/></g><path d="M30-248c118-7 216 8 213 122C240-48 200 0 122 0H30v-248zM63-27c89 8 146-16 146-99s-60-101-146-95v194" id="J"/><path d="M-5 72V49h209v23H-5" id="K"/><path d="M101-251c68 0 85 55 85 127S166 4 100 4C33 4 14-52 14-124c0-73 17-127 87-127zm-1 229c47 0 54-49 54-102s-4-102-53-102c-51 0-55 48-55 102 0 53 5 102 54 102" id="L"/><g id="e"><use transform="matrix(0.04320987654320987,0,0,0.04320987654320987,0,0)" xlink:href="#J"/><use transform="matrix(0.04320987654320987,0,0,0.04320987654320987,11.191358024691356,0)" xlink:href="#K"/><use transform="matrix(0.04320987654320987,0,0,0.04320987654320987,19.83333333333333,0)" xlink:href="#L"/></g><path fill="#3a414a" d="M143 4C61 4 22-44 18-125c-5-107 100-154 193-111 17 8 29 25 37 43l-32 9c-13-25-37-40-76-40-61 0-88 39-88 99 0 61 29 100 91 101 35 0 62-11 79-27v-45h-74v-28h105v86C228-13 192 4 143 4" id="M"/><path fill="#3a414a" d="M141-36C126-15 110 5 73 4 37 3 15-17 15-53c-1-64 63-63 125-63 3-35-9-54-41-54-24 1-41 7-42 31l-33-3c5-37 33-52 76-52 45 0 72 20 72 64v82c-1 20 7 32 28 27v20c-31 9-61-2-59-35zM48-53c0 20 12 33 32 33 41-3 63-29 60-74-43 2-92-5-92 41" id="N"/><path fill="#3a414a" d="M84 4C-5 8 30-112 23-190h32v120c0 31 7 50 39 49 72-2 45-101 50-169h31l1 190h-30c-1-10 1-25-2-33-11 22-28 36-60 37" id="O"/><path fill="#3a414a" d="M135-143c-3-34-86-38-87 0 15 53 115 12 119 90S17 21 10-45l28-5c4 36 97 45 98 0-10-56-113-15-118-90-4-57 82-63 122-42 12 7 21 19 24 35" id="P"/><path fill="#3a414a" d="M24-231v-30h32v30H24zM24 0v-190h32V0H24" id="Q"/><path fill="#3a414a" d="M117-194c89-4 53 116 60 194h-32v-121c0-31-8-49-39-48C34-167 62-67 57 0H25l-1-190h30c1 10-1 24 2 32 11-22 29-35 61-36" id="R"/><g id="f"><use transform="matrix(0.04320987654320987,0,0,0.04320987654320987,0,0)" xlink:href="#M"/><use transform="matrix(0.04320987654320987,0,0,0.04320987654320987,12.098765432098762,0)" xlink:href="#N"/><use transform="matrix(0.04320987654320987,0,0,0.04320987654320987,20.740740740740733,0)" xlink:href="#O"/><use transform="matrix(0.04320987654320987,0,0,0.04320987654320987,29.382716049382708,0)" xlink:href="#P"/><use transform="matrix(0.04320987654320987,0,0,0.04320987654320987,37.16049382716049,0)" xlink:href="#P"/><use transform="matrix(0.04320987654320987,0,0,0.04320987654320987,44.938271604938265,0)" xlink:href="#Q"/><use transform="matrix(0.04320987654320987,0,0,0.04320987654320987,48.351851851851855,0)" xlink:href="#N"/><use transform="matrix(0.04320987654320987,0,0,0.04320987654320987,56.99382716049382,0)" xlink:href="#R"/></g><path fill="#3a414a" d="M63-220v92h138v28H63V0H30v-248h175v28H63" id="S"/><path fill="#3a414a" d="M96-169c-40 0-48 33-48 73s9 75 48 75c24 0 41-14 43-38l32 2c-6 37-31 61-74 61-59 0-76-41-82-99-10-93 101-131 147-64 4 7 5 14 7 22l-32 3c-4-21-16-35-41-35" id="T"/><path fill="#3a414a" d="M59-47c-2 24 18 29 38 22v24C64 9 27 4 27-40v-127H5v-23h24l9-43h21v43h35v23H59v120" id="U"/><path fill="#3a414a" d="M100-194c62-1 85 37 85 99 1 63-27 99-86 99S16-35 15-95c0-66 28-99 85-99zM99-20c44 1 53-31 53-75 0-43-8-75-51-75s-53 32-53 75 10 74 51 75" id="V"/><path fill="#3a414a" d="M114-163C36-179 61-72 57 0H25l-1-190h30c1 12-1 29 2 39 6-27 23-49 58-41v29" id="W"/><g id="g"><use transform="matrix(0.04320987654320987,0,0,0.04320987654320987,0,0)" xlink:href="#S"/><use transform="matrix(0.04320987654320987,0,0,0.04320987654320987,9.46296296296296,0)" xlink:href="#N"/><use transform="matrix(0.04320987654320987,0,0,0.04320987654320987,18.104938271604933,0)" xlink:href="#T"/><use transform="matrix(0.04320987654320987,0,0,0.04320987654320987,25.882716049382704,0)" xlink:href="#U"/><use transform="matrix(0.04320987654320987,0,0,0.04320987654320987,30.2037037037037,0)" xlink:href="#V"/><use transform="matrix(0.04320987654320987,0,0,0.04320987654320987,38.84567901234567,0)" xlink:href="#W"/></g><path d="M30 0v-248h187v28H63v79h144v27H63v87h162V0H30" id="X"/><path d="M108 0H70L1-190h34L89-25l56-165h34" id="Y"/><g id="h"><use transform="matrix(0.04320987654320987,0,0,0.04320987654320987,0,0)" xlink:href="#X"/><use transform="matrix(0.04320987654320987,0,0,0.04320987654320987,10.370370370370368,0)" xlink:href="#Y"/><use transform="matrix(0.04320987654320987,0,0,0.04320987654320987,18.148148148148145,0)" xlink:href="#D"/><use transform="matrix(0.04320987654320987,0,0,0.04320987654320987,26.790123456790116,0)" xlink:href="#x"/><use transform="matrix(0.04320987654320987,0,0,0.04320987654320987,35.432098765432094,0)" xlink:href="#z"/></g><g id="i"><use transform="matrix(0.04320987654320987,0,0,0.04320987654320987,0,0)" xlink:href="#J"/><use transform="matrix(0.04320987654320987,0,0,0.04320987654320987,11.191358024691356,0)" xlink:href="#K"/><use transform="matrix(0.04320987654320987,0,0,0.04320987654320987,19.83333333333333,0)" xlink:href="#y"/></g><path fill="#3a414a" d="M266 0h-40l-56-210L115 0H75L2-248h35L96-30l15-64 43-154h32l59 218 59-218h35" id="Z"/><path fill="#3a414a" d="M100-194c63 0 86 42 84 106H49c0 40 14 67 53 68 26 1 43-12 49-29l28 8c-11 28-37 45-77 45C44 4 14-33 15-96c1-61 26-98 85-98zm52 81c6-60-76-77-97-28-3 7-6 17-6 28h103" id="aa"/><path fill="#3a414a" d="M177-190C167-65 218 103 67 71c-23-6-38-20-44-43l32-5c15 47 100 32 89-28v-30C133-14 115 1 83 1 29 1 15-40 15-95c0-56 16-97 71-98 29-1 48 16 59 35 1-10 0-23 2-32h30zM94-22c36 0 50-32 50-73 0-42-14-75-50-75-39 0-46 34-46 75s6 73 46 73" id="ab"/><path fill="#3a414a" d="M106-169C34-169 62-67 57 0H25v-261h32l-1 103c12-21 28-36 61-36 89 0 53 116 60 194h-32v-121c2-32-8-49-39-48" id="ac"/><path fill="#3a414a" d="M85-194c31 0 48 13 60 33l-1-100h32l1 261h-30c-2-10 0-23-3-31C134-8 116 4 85 4 32 4 16-35 15-94c0-66 23-100 70-100zm9 24c-40 0-46 34-46 75 0 40 6 74 45 74 42 0 51-32 51-76 0-42-9-74-50-73" id="ad"/><g id="j"><use transform="matrix(0.04320987654320987,0,0,0.04320987654320987,0,0)" xlink:href="#Z"/><use transform="matrix(0.04320987654320987,0,0,0.04320987654320987,14.345679012345675,0)" xlink:href="#aa"/><use transform="matrix(0.04320987654320987,0,0,0.04320987654320987,22.987654320987648,0)" xlink:href="#Q"/><use transform="matrix(0.04320987654320987,0,0,0.04320987654320987,26.40123456790123,0)" xlink:href="#ab"/><use transform="matrix(0.04320987654320987,0,0,0.04320987654320987,35.0432098765432,0)" xlink:href="#ac"/><use transform="matrix(0.04320987654320987,0,0,0.04320987654320987,43.685185185185176,0)" xlink:href="#U"/><use transform="matrix(0.04320987654320987,0,0,0.04320987654320987,48.00617283950616,0)" xlink:href="#aa"/><use transform="matrix(0.04320987654320987,0,0,0.04320987654320987,56.64814814814814,0)" xlink:href="#ad"/></g><path fill="#3a414a" d="M185-189c-5-48-123-54-124 2 14 75 158 14 163 119 3 78-121 87-175 55-17-10-28-26-33-46l33-7c5 56 141 63 141-1 0-78-155-14-162-118-5-82 145-84 179-34 5 7 8 16 11 25" id="ae"/><path fill="#3a414a" d="M210-169c-67 3-38 105-44 169h-31v-121c0-29-5-50-35-48C34-165 62-65 56 0H25l-1-190h30c1 10-1 24 2 32 10-44 99-50 107 0 11-21 27-35 58-36 85-2 47 119 55 194h-31v-121c0-29-5-49-35-48" id="af"/><g id="k"><use transform="matrix(0.04320987654320987,0,0,0.04320987654320987,0,0)" xlink:href="#ae"/><use transform="matrix(0.04320987654320987,0,0,0.04320987654320987,10.370370370370368,0)" xlink:href="#O"/><use transform="matrix(0.04320987654320987,0,0,0.04320987654320987,19.01234567901234,0)" xlink:href="#af"/></g><g id="l"><use transform="matrix(0.030864197530864182,0,0,0.030864197530864182,0,0)" xlink:href="#Z"/><use transform="matrix(0.030864197530864182,0,0,0.030864197530864182,10.24691358024691,0)" xlink:href="#aa"/><use transform="matrix(0.030864197530864182,0,0,0.030864197530864182,16.419753086419746,0)" xlink:href="#Q"/><use transform="matrix(0.030864197530864182,0,0,0.030864197530864182,18.85802469135802,0)" xlink:href="#ab"/><use transform="matrix(0.030864197530864182,0,0,0.030864197530864182,25.030864197530853,0)" xlink:href="#ac"/><use transform="matrix(0.030864197530864182,0,0,0.030864197530864182,31.203703703703688,0)" xlink:href="#U"/><use transform="matrix(0.030864197530864182,0,0,0.030864197530864182,34.290123456790106,0)" xlink:href="#P"/></g><path fill="#3a414a" d="M115-194c55 1 70 41 70 98S169 2 115 4C84 4 66-9 55-30l1 105H24l-1-265h31l2 30c10-21 28-34 59-34zm-8 174c40 0 45-34 45-75s-6-73-45-74c-42 0-51 32-51 76 0 43 10 73 51 73" id="ag"/><g id="m"><use transform="matrix(0.030864197530864182,0,0,0.030864197530864182,0,0)" xlink:href="#ad"/><use transform="matrix(0.030864197530864182,0,0,0.030864197530864182,6.172839506172837,0)" xlink:href="#aa"/><use transform="matrix(0.030864197530864182,0,0,0.030864197530864182,12.345679012345673,0)" xlink:href="#ag"/><use transform="matrix(0.030864197530864182,0,0,0.030864197530864182,18.518518518518512,0)" xlink:href="#aa"/><use transform="matrix(0.030864197530864182,0,0,0.030864197530864182,24.691358024691347,0)" xlink:href="#R"/><use transform="matrix(0.030864197530864182,0,0,0.030864197530864182,30.864197530864182,0)" xlink:href="#ad"/><use transform="matrix(0.030864197530864182,0,0,0.030864197530864182,37.03703703703702,0)" xlink:href="#Q"/><use transform="matrix(0.030864197530864182,0,0,0.030864197530864182,39.47530864197529,0)" xlink:href="#R"/><use transform="matrix(0.030864197530864182,0,0,0.030864197530864182,45.648148148148124,0)" xlink:href="#ab"/></g><g id="n"><use transform="matrix(0.030864197530864182,0,0,0.030864197530864182,0,0)" xlink:href="#V"/><use transform="matrix(0.030864197530864182,0,0,0.030864197530864182,6.172839506172837,0)" xlink:href="#R"/></g><path fill="#3a414a" d="M108 0H70L1-190h34L89-25l56-165h34" id="ah"/><path fill="#3a414a" d="M179-190L93 31C79 59 56 82 12 73V49c39 6 53-20 64-50L1-190h34L92-34l54-156h33" id="ai"/><g id="o"><use transform="matrix(0.030864197530864182,0,0,0.030864197530864182,0,0)" xlink:href="#P"/><use transform="matrix(0.030864197530864182,0,0,0.030864197530864182,5.555555555555553,0)" xlink:href="#aa"/><use transform="matrix(0.030864197530864182,0,0,0.030864197530864182,11.728395061728389,0)" xlink:href="#ah"/><use transform="matrix(0.030864197530864182,0,0,0.030864197530864182,17.283950617283942,0)" xlink:href="#aa"/><use transform="matrix(0.030864197530864182,0,0,0.030864197530864182,23.456790123456777,0)" xlink:href="#W"/><use transform="matrix(0.030864197530864182,0,0,0.030864197530864182,27.129629629629616,0)" xlink:href="#Q"/><use transform="matrix(0.030864197530864182,0,0,0.030864197530864182,29.567901234567884,0)" xlink:href="#U"/><use transform="matrix(0.030864197530864182,0,0,0.030864197530864182,32.6543209876543,0)" xlink:href="#ai"/></g><path fill="#3a414a" d="M101-234c-31-9-42 10-38 44h38v23H63V0H32v-167H5v-23h27c-7-52 17-82 69-68v24" id="aj"/><g id="p"><use transform="matrix(0.030864197530864182,0,0,0.030864197530864182,0,0)" xlink:href="#V"/><use transform="matrix(0.030864197530864182,0,0,0.030864197530864182,6.172839506172837,0)" xlink:href="#aj"/></g><path fill="#3a414a" d="M30-248c118-7 216 8 213 122C240-48 200 0 122 0H30v-248zM63-27c89 8 146-16 146-99s-60-101-146-95v194" id="ak"/><path fill="#3a414a" d="M-5 72V49h209v23H-5" id="al"/><g id="q"><use transform="matrix(0.030864197530864182,0,0,0.030864197530864182,0,0)" xlink:href="#ak"/><use transform="matrix(0.030864197530864182,0,0,0.030864197530864182,7.993827160493823,0)" xlink:href="#al"/><use transform="matrix(0.030864197530864182,0,0,0.030864197530864182,14.16666666666666,0)" xlink:href="#Q"/></g><use transform="matrix(0.049382716049382706,0,0,0.049382716049382706,0,0)" xlink:href="#Q" id="r"/><path fill="#3a414a" d="M18-150v-26h174v26H18zm0 90v-26h174v26H18" id="am"/><use transform="matrix(0.049382716049382706,0,0,0.049382716049382706,0,0)" xlink:href="#am" id="s"/><path fill="#3a414a" d="M27 0v-27h64v-190l-56 39v-29l58-41h29v221h61V0H27" id="an"/><path fill="#3a414a" d="M33 0v-38h34V0H33" id="ao"/><path fill="#3a414a" d="M18-100v-36l175-74v27L42-118l151 64v27" id="ap"/><g id="t"><use transform="matrix(0.049382716049382706,0,0,0.049382716049382706,0,0)" xlink:href="#an"/><use transform="matrix(0.049382716049382706,0,0,0.049382716049382706,9.87654320987654,0)" xlink:href="#ao"/><use transform="matrix(0.049382716049382706,0,0,0.049382716049382706,14.814814814814811,0)" xlink:href="#ao"/><use transform="matrix(0.049382716049382706,0,0,0.049382716049382706,19.75308641975308,0)" xlink:href="#ap"/><use transform="matrix(0.049382716049382706,0,0,0.049382716049382706,30.123456790123452,0)" xlink:href="#R"/></g><path d="M63-220v92h138v28H63V0H30v-248h175v28H63" id="aq"/><g id="u"><use transform="matrix(0.04320987654320987,0,0,0.04320987654320987,0,0)" xlink:href="#aq"/><use transform="matrix(0.04320987654320987,0,0,0.04320987654320987,9.46296296296296,0)" xlink:href="#y"/><use transform="matrix(0.04320987654320987,0,0,0.04320987654320987,12.876543209876537,0)" xlink:href="#x"/><use transform="matrix(0.04320987654320987,0,0,0.04320987654320987,21.518518518518512,0)" xlink:href="#A"/><use transform="matrix(0.04320987654320987,0,0,0.04320987654320987,30.160493827160487,0)" xlink:href="#B"/></g><path d="M30-248c87 1 191-15 191 75 0 78-77 80-158 76V0H30v-248zm33 125c57 0 124 11 124-50 0-59-68-47-124-48v98" id="ar"/><path d="M96-169c-40 0-48 33-48 73s9 75 48 75c24 0 41-14 43-38l32 2c-6 37-31 61-74 61-59 0-76-41-82-99-10-93 101-131 147-64 4 7 5 14 7 22l-32 3c-4-21-16-35-41-35" id="as"/><g id="v"><use transform="matrix(0.04320987654320987,0,0,0.04320987654320987,0,0)" xlink:href="#ar"/><use transform="matrix(0.04320987654320987,0,0,0.04320987654320987,10.370370370370368,0)" xlink:href="#C"/><use transform="matrix(0.04320987654320987,0,0,0.04320987654320987,15.512345679012343,0)" xlink:href="#D"/><use transform="matrix(0.04320987654320987,0,0,0.04320987654320987,24.154320987654316,0)" xlink:href="#H"/><use transform="matrix(0.04320987654320987,0,0,0.04320987654320987,32.79629629629629,0)" xlink:href="#y"/><use transform="matrix(0.04320987654320987,0,0,0.04320987654320987,36.20987654320987,0)" xlink:href="#as"/><use transform="matrix(0.04320987654320987,0,0,0.04320987654320987,43.98765432098765,0)" xlink:href="#z"/><use transform="matrix(0.04320987654320987,0,0,0.04320987654320987,48.30864197530864,0)" xlink:href="#y"/><use transform="matrix(0.04320987654320987,0,0,0.04320987654320987,51.72222222222222,0)" xlink:href="#F"/><use transform="matrix(0.04320987654320987,0,0,0.04320987654320987,60.364197530864196,0)" xlink:href="#x"/></g></defs></g></svg>